<svg xmlns="http://www.w3.org/2000/svg" xmlns:xlink="http://www.w3.org/1999/xlink" version="1.1" id="Layer_1" x="0px" y="0px" viewBox="5.0 -10.0 100.0 135.0" enable-background="new 0 0 100 100" xml:space="preserve" height="100px" width="100px">
<circle cx="44.9" cy="57.3" r="0.6"/>
<circle cx="42.1" cy="57.3" r="0.6"/>
<circle cx="39.4" cy="57.3" r="0.6"/>
<circle cx="47.6" cy="57.3" r="0.6"/>
<circle cx="50.4" cy="57.3" r="0.6"/>
<circle cx="53.1" cy="57.3" r="0.6"/>
<circle cx="44.9" cy="52.7" r="0.6"/>
<circle cx="42.1" cy="52.7" r="0.6"/>
<circle cx="39.4" cy="52.7" r="0.6"/>
<circle cx="47.6" cy="52.7" r="0.6"/>
<circle cx="50.4" cy="52.7" r="0.6"/>
<circle cx="53.1" cy="52.7" r="0.6"/>
<circle cx="43.5" cy="55" r="0.6"/>
<circle cx="40.7" cy="55" r="0.6"/>
<circle cx="46.2" cy="55" r="0.6"/>
<circle cx="49" cy="55" r="0.6"/>
<circle cx="51.7" cy="55" r="0.6"/>
<path d="M53.7,74C53.7,74,53.8,74,53.7,74L53.7,74c0-0.4-0.3-0.7-0.6-0.7s-0.7,0.3-0.7,0.7c0,0,0,0,0,0h-5.6c0,0,0,0,0,0v0  c0-0.4-0.3-0.6-0.7-0.6s-0.7,0.3-0.7,0.7c0,0,0,0,0,0H40c0,0,0,0,0,0v0c0-0.4-0.3-0.6-0.7-0.6s-0.7,0.3-0.7,0.7c0,0,0,0,0,0h-2  c0,5.3-0.9,11.5-0.9,13.2h21c0-1.7-0.9-7.8-0.9-13.2H53.7z"/>
<path d="M70,72.2c0-3.4-2.8-6.2-6.2-6.2c-1.9,0-3.6,0.9-4.8,2.2c0.2-1.9,0.5-3.4,0.7-4.9c0.1-0.8,0.3-1.6,0.4-2.4h1.9  c0.3,0,0.6-0.3,0.6-0.6s-0.3-0.6-0.6-0.6h-2.4h-2.8V19.8h-2.6V11h4.5V9.8h-4.5H38.2h-4.4V11h4.4v8.8h-2.5v39.9h-2.8h-2.4  c-0.3,0-0.6,0.3-0.6,0.6s0.3,0.6,0.6,0.6h1.9c0.1,0.8,0.3,1.6,0.4,2.4c0.5,2.8,1,5.8,1,10.5c0,4-0.5,8.4-0.8,11.7  c-0.2,1.8-0.4,3.3-0.4,4.1c0,0.3,0.3,0.6,0.6,0.6h26.2c0.3,0,0.6-0.3,0.6-0.6c0-0.8-0.2-2.2-0.4-4.1c-0.2-1.6-0.4-3.5-0.5-5.4  c1.1,1.4,2.9,2.2,4.8,2.2c3.4,0,6.2-2.8,6.2-6.2L70,72.2z M53.1,45.4h-6.5V21h6.5V45.4z M45.5,45.4h-6.1V21h6.1V45.4z M55.7,21v26.8  l-1.4-2.1V21H55.7z M53.1,19.8h-6.5V11h6.5V19.8z M39.4,11h6.1v8.8h-6.1V11z M38.2,21v24.8l-1.3,2V21H38.2z M36.9,50.5h18.8v9.2  H36.9V50.5z M36.9,60.9h1.8v2.5h-1.8V60.9z M40,63.4v-2.5h5.7v2.5H40z M46.8,63.4v-2.5h5.7v2.5H46.8z M53.7,63.4v-2.5h2v2.5H53.7z   M33.8,89c0-0.8,0.2-1.9,0.3-3.3c0.3-3.2,0.8-7.7,0.8-11.8c0-4.9-0.5-7.8-1-10.7c-0.1-0.7-0.2-1.4-0.4-2.2h2.1v3.7h3  c0,0.4,0.3,0.6,0.6,0.6s0.6-0.3,0.6-0.6h5.6c0,0.4,0.3,0.6,0.6,0.6s0.6-0.3,0.6-0.6h5.6c0,0.4,0.3,0.6,0.6,0.6s0.6-0.3,0.6-0.6h3.2  v-3.7H59c-0.1,0.7-0.2,1.5-0.4,2.2c-0.4,2.4-0.8,4.9-1,8.4c0,0.2,0,0.5,0,0.7h0c0,0.5,0,1.1,0,1.6c0,4.1,0.5,8.5,0.8,11.8  c0.1,1.4,0.3,2.5,0.3,3.3H33.8z M63.9,81.1c-2.8,0-5-2.2-5-5h0c0-0.8-0.1-1.6-0.1-2.3c0-0.7,0-1.3,0-1.9c0.2-2.6,2.4-4.7,5-4.7  c2.7,0,5,2.2,5,5l0,4C68.8,78.9,66.6,81.1,63.9,81.1z"/>
<path d="M39.4,68.4c0.4,0,0.7-0.3,0.7-0.7v-0.1c0-0.4-0.3-0.7-0.7-0.7s-0.7,0.3-0.7,0.7v0.1C38.7,68.1,39,68.4,39.4,68.4z"/>
<path d="M39.4,71.5c0.4,0,0.7-0.3,0.7-0.7v-0.1c0-0.4-0.3-0.7-0.7-0.7s-0.7,0.3-0.7,0.7v0.1C38.7,71.2,39,71.5,39.4,71.5z"/>
<path d="M53.1,68.4c0.4,0,0.7-0.3,0.7-0.7v-0.1c0-0.4-0.3-0.7-0.7-0.7s-0.7,0.3-0.7,0.7v0.1C52.4,68.1,52.7,68.4,53.1,68.4z"/>
<path d="M53.1,71.5c0.4,0,0.7-0.3,0.7-0.7v-0.1c0-0.4-0.3-0.7-0.7-0.7s-0.7,0.3-0.7,0.7v0.1C52.4,71.2,52.7,71.5,53.1,71.5z"/>
<path d="M46.2,71.5c0.4,0,0.7-0.3,0.7-0.7v-0.1c0-0.4-0.3-0.7-0.7-0.7s-0.7,0.3-0.7,0.7v0.1C45.6,71.2,45.9,71.5,46.2,71.5z"/>
<path d="M46.2,68.4c0.4,0,0.7-0.3,0.7-0.7v-0.1c0-0.4-0.3-0.7-0.7-0.7s-0.7,0.3-0.7,0.7v0.1C45.6,68.1,45.9,68.4,46.2,68.4z"/>
</svg>
