<svg xmlns="http://www.w3.org/2000/svg" xmlns:xlink="http://www.w3.org/1999/xlink" version="1.1" x="0px" y="0px" viewBox="5.0 -10.0 100.0 135.0" enable-background="new 0 0 100 100" xml:space="preserve" height="100px" width="100px"> enable-background="new 0 0 100 100" xml:space="preserve"><path d="M72.8,15.9c0-0.3-0.3-0.6-0.6-0.6H30.1c-0.1,0-0.2,0-0.3,0.1l0,0l-2.3,1.2c-0.2,0.1-0.3,0.2-0.3,0.4c0,0.2,0,0.3,0.1,0.5  l9.5,14c-0.2,0.6-0.2,1.2,0,1.8l1.9,4.8c-0.6-0.3-1.2-0.5-1.9-0.5c-2.1,0-3.9,1.7-4,3.8c0,0,0,0.1,0,0.1c0,0.1-0.2,6.1-3.2,11.9  c-0.2,0.3,0,0.7,0.3,0.8c0.1,0,0.2,0.1,0.3,0.1c0.2,0,0.4-0.1,0.5-0.3c1.4-2.7,2.2-5.3,2.7-7.5c0.3,1.5,0.7,3.2,1.2,4.7  c0.1,0.3,0.5,0.5,0.8,0.4c0.3-0.1,0.5-0.5,0.4-0.8c-0.8-2-1.2-4.4-1.4-6.2c0.7,0.6,1.6,0.9,2.5,0.9c0.8,0,1.5-0.2,2.2-0.6L37,49.7  c-0.4,0.9-0.2,2,0.3,2.8c0.1,0.1,0.2,0.3,0.3,0.4l-5.5,9.5c-2,3.3-2.3,6.1-2.3,7.5c0,3.5,1.5,14.8,21.3,14.8  c19.8,0,21.3-11.4,21.3-14.8c0-1.4-0.3-4.2-2.3-7.5l-5.7-9.9c0.6-0.8,0.7-1.9,0.3-2.8l-1.9-5c-0.3-0.8-0.5-1.7-0.5-2.6h0.3  c0.3,0,0.6-0.3,0.6-0.6s-0.3-0.6-0.6-0.6h-0.3c0.1-0.7,0.2-1.4,0.5-2.1l2.1-5.5c0.3-0.8,0.2-1.7-0.3-2.4c-0.2-0.2-0.4-0.4-0.6-0.6  l8.6-13.9C72.8,16.2,72.8,16.1,72.8,15.9z M29.9,16.7L38.1,30c-0.2,0.1-0.4,0.2-0.6,0.4l-8.9-13L29.9,16.7z M36.8,44.3  c-1.5,0-2.8-1.2-2.8-2.8s1.2-2.8,2.8-2.8c1.3,0,2.4,0.9,2.7,2.2h-2.8c-0.3,0-0.6,0.3-0.6,0.6s0.3,0.6,0.6,0.6h2.8  C39.2,43.4,38.1,44.3,36.8,44.3z M71.3,69.8c0,8.5-7.5,13.7-20.1,13.7c-12.6,0-20.1-5.1-20.1-13.7c0-2.1,0.8-4.6,2.1-6.9l5.5-9.4  c0.4,0.1,0.7,0.2,1.1,0.2h22.1c0.6,0,1.1-0.2,1.6-0.5l5.6,9.6C71,66,71.3,68.6,71.3,69.8z M61.7,45.1l1.9,5c0.2,0.6,0.1,1.2-0.2,1.7  c-0.3,0.5-0.9,0.8-1.5,0.8H39.8c-0.6,0-1.1-0.3-1.5-0.8s-0.4-1.1-0.2-1.7l1.9-5c0.4-1,0.6-2,0.6-3h20.3  C61.1,43.1,61.3,44.2,61.7,45.1z M63.8,32.9l-2.1,5.5c-0.3,0.8-0.5,1.7-0.6,2.6H40.7c-0.1-0.9-0.3-1.7-0.6-2.6l-2.1-5.5  c-0.2-0.4-0.1-0.9,0.2-1.3c0.3-0.4,0.7-0.6,1.2-0.6h23.2c0.5,0,0.9,0.2,1.2,0.6C63.9,31.9,64,32.4,63.8,32.9z M63,29.8  c-0.2,0-0.3-0.1-0.5-0.1H39.3l-8.2-13.2h40L63,29.8z"/><path d="M51.2,82c11.5,0,17.5-4.6,18.2-10.9H33C33.7,77.4,39.7,82,51.2,82z"/><circle cx="54.8" cy="27.7" r="0.6"/><circle cx="52.2" cy="27.7" r="0.6"/><circle cx="49.5" cy="27.7" r="0.6"/><circle cx="46.9" cy="27.7" r="0.6"/><circle cx="44.2" cy="27.7" r="0.6"/><circle cx="41.6" cy="27.7" r="0.6"/><circle cx="57.5" cy="27.7" r="0.6"/><circle cx="60.2" cy="27.7" r="0.6"/><circle cx="53.5" cy="25.1" r="0.6"/><circle cx="50.9" cy="25.1" r="0.6"/><circle cx="48.2" cy="25.1" r="0.6"/><circle cx="45.6" cy="25.1" r="0.6"/><circle cx="42.9" cy="25.1" r="0.6"/><circle cx="40.3" cy="25.1" r="0.6"/><circle cx="56.2" cy="25.1" r="0.6"/><circle cx="58.8" cy="25.1" r="0.6"/><circle cx="61.5" cy="25.1" r="0.6"/><circle cx="54.8" cy="22.5" r="0.6"/><circle cx="52.2" cy="22.5" r="0.6"/><circle cx="49.5" cy="22.5" r="0.6"/><circle cx="46.9" cy="22.5" r="0.6"/><circle cx="44.2" cy="22.5" r="0.6"/><circle cx="41.6" cy="22.5" r="0.6"/><circle cx="38.9" cy="22.5" r="0.6"/><circle cx="57.5" cy="22.5" r="0.6"/><circle cx="60.2" cy="22.5" r="0.6"/><circle cx="62.8" cy="22.5" r="0.6"/><path d="M51.2,56.5c0.4,0,0.7-0.3,0.7-0.7v0c0-0.4-0.3-0.6-0.7-0.6s-0.7,0.3-0.7,0.7S50.8,56.5,51.2,56.5z"/><path d="M51.2,62.6c0.4,0,0.7-0.3,0.7-0.7v0c0-0.4-0.3-0.6-0.7-0.6s-0.7,0.3-0.7,0.7S50.8,62.6,51.2,62.6z"/><path d="M51.2,59.5c0.4,0,0.7-0.3,0.7-0.7v0c0-0.4-0.3-0.6-0.7-0.6s-0.7,0.3-0.7,0.7S50.8,59.5,51.2,59.5z"/><path d="M51.2,68.7c0.4,0,0.7-0.3,0.7-0.7v0c0-0.4-0.3-0.6-0.7-0.6s-0.7,0.3-0.7,0.7S50.8,68.7,51.2,68.7z"/><path d="M51.2,65.7c0.4,0,0.7-0.3,0.7-0.7v0c0-0.4-0.3-0.6-0.7-0.6s-0.7,0.3-0.7,0.7S50.8,65.7,51.2,65.7z"/></svg>