<svg xmlns="http://www.w3.org/2000/svg" xmlns:xlink="http://www.w3.org/1999/xlink" version="1.1" id="Layer_1" x="0px" y="0px" viewBox="5.0 -10.0 100.0 135.0" enable-background="new 0 0 100 100" xml:space="preserve" height="100px" width="100px">
<path d="M75.9,56c-1.3-16.1-7.7-17.4-13.6-17.4h-3.7v-4.1h1c0.3,0,0.6-0.3,0.6-0.6V32c0-0.3-0.3-0.6-0.6-0.6h-1  c-0.3-7-5.7-11.6-14.1-11.8v-4.2c1.4-0.3,2.4-1.5,2.4-2.9c0-1.6-1.3-3-3-3c-1.6,0-3,1.3-3,3c0,1.4,1,2.6,2.4,2.9v4.2  c-8.3,0.2-13.8,4.8-14.1,11.8h-1c-0.3,0-0.6,0.3-0.6,0.6v1.8c0,0.3,0.3,0.6,0.6,0.6h0.2l-4.3,4.3c-0.2,0.2-0.2,0.4-0.1,0.7  c0.1,0.2,0.3,0.4,0.6,0.4h4.7v4.4v39.2c0,2,1.3,3.7,3,4.3c-0.8,0.7-1.3,1.7-1.3,2.8h1.2c0-1.4,1.1-2.5,2.5-2.5h18.5  c1.4,0,2.5,1.1,2.5,2.5h1.2c0-1.1-0.5-2.1-1.3-2.8c1.8-0.6,3-2.3,3-4.3V72.9h3.7c0,0,0,0,0,0c1.7,0,6.8,0,10.3-3.8  C75.3,66.2,76.4,61.8,75.9,56z M57.4,38.6H30.5v-4.1h26.9V38.6z M58.6,44.2h2.9c3.2,0,8,0,8.9,11.8c0.3,4-0.4,6.9-2.2,8.8  c-2.3,2.5-5.7,2.5-6.8,2.5h-2.9V44.2z M43.6,65h0.7v2.2h-0.7V65z M50.6,74.5c-0.4,0-0.6-0.3-0.6-0.6c0-0.4,0.3-0.7,0.6-0.7  s0.6,0.3,0.6,0.7C51.2,74.3,50.9,74.5,50.6,74.5z M51.2,78.6c0,0.4-0.3,0.6-0.6,0.6s-0.6-0.3-0.6-0.6c0-0.4,0.3-0.6,0.6-0.6  S51.2,78.3,51.2,78.6z M49.3,76.9c-0.4,0-0.6-0.3-0.6-0.6c0-0.4,0.3-0.6,0.6-0.6c0.4,0,0.6,0.3,0.6,0.6  C49.9,76.6,49.6,76.9,49.3,76.9z M49.9,81c0,0.4-0.3,0.6-0.6,0.6c-0.4,0-0.6-0.3-0.6-0.6c0-0.4,0.3-0.6,0.6-0.6  C49.6,80.4,49.9,80.7,49.9,81z M49.3,72.2c-0.4,0-0.6-0.3-0.6-0.6c0-0.4,0.3-0.6,0.6-0.6c0.4,0,0.6,0.3,0.6,0.6  C49.9,71.9,49.6,72.2,49.3,72.2z M47.9,74.5c-0.4,0-0.6-0.3-0.6-0.6c0-0.4,0.3-0.7,0.6-0.7c0.4,0,0.6,0.3,0.6,0.7  C48.6,74.3,48.3,74.5,47.9,74.5z M48.6,78.6c0,0.4-0.3,0.6-0.6,0.6c-0.4,0-0.6-0.3-0.6-0.6c0-0.4,0.3-0.6,0.6-0.6  C48.3,78,48.6,78.3,48.6,78.6z M46.6,76.9c-0.4,0-0.6-0.3-0.6-0.6c0-0.4,0.3-0.6,0.6-0.6c0.4,0,0.6,0.3,0.6,0.6  C47.3,76.6,47,76.9,46.6,76.9z M47.3,81c0,0.4-0.3,0.6-0.6,0.6c-0.4,0-0.6-0.3-0.6-0.6c0-0.4,0.3-0.6,0.6-0.6  C47,80.4,47.3,80.7,47.3,81z M46.6,72.2c-0.4,0-0.6-0.3-0.6-0.6c0-0.4,0.3-0.6,0.6-0.6c0.4,0,0.6,0.3,0.6,0.6  C47.3,71.9,47,72.2,46.6,72.2z M45.3,74.5c-0.4,0-0.6-0.3-0.6-0.6c0-0.4,0.3-0.7,0.6-0.7c0.4,0,0.6,0.3,0.6,0.7  C45.9,74.3,45.6,74.5,45.3,74.5z M45.9,78.6c0,0.4-0.3,0.6-0.6,0.6c-0.4,0-0.6-0.3-0.6-0.6c0-0.4,0.3-0.6,0.6-0.6  C45.6,78,45.9,78.3,45.9,78.6z M44,76.9c-0.4,0-0.6-0.3-0.6-0.6c0-0.4,0.3-0.6,0.6-0.6s0.6,0.3,0.6,0.6C44.6,76.6,44.3,76.9,44,76.9  z M44.6,81c0,0.4-0.3,0.6-0.6,0.6s-0.6-0.3-0.6-0.6c0-0.4,0.3-0.6,0.6-0.6S44.6,80.7,44.6,81z M44,72.2c-0.4,0-0.6-0.3-0.6-0.6  c0-0.4,0.3-0.6,0.6-0.6s0.6,0.3,0.6,0.6C44.6,71.9,44.3,72.2,44,72.2z M42.6,74.5c-0.4,0-0.6-0.3-0.6-0.6c0-0.4,0.3-0.7,0.6-0.7  c0.4,0,0.6,0.3,0.6,0.7C43.3,74.3,43,74.5,42.6,74.5z M43.3,78.6c0,0.4-0.3,0.6-0.6,0.6c-0.4,0-0.6-0.3-0.6-0.6  c0-0.4,0.3-0.6,0.6-0.6C43,78,43.3,78.3,43.3,78.6z M41.3,76.9c-0.4,0-0.6-0.3-0.6-0.6c0-0.4,0.3-0.6,0.6-0.6s0.6,0.3,0.6,0.6  C42,76.6,41.7,76.9,41.3,76.9z M42,81c0,0.4-0.3,0.6-0.6,0.6s-0.6-0.3-0.6-0.6c0-0.4,0.3-0.6,0.6-0.6S42,80.7,42,81z M41.3,72.2  c-0.4,0-0.6-0.3-0.6-0.6c0-0.4,0.3-0.6,0.6-0.6s0.6,0.3,0.6,0.6C42,71.9,41.7,72.2,41.3,72.2z M40,74.5c-0.4,0-0.6-0.3-0.6-0.6  c0-0.4,0.3-0.7,0.6-0.7s0.6,0.3,0.6,0.7C40.6,74.3,40.3,74.5,40,74.5z M40.6,78.6c0,0.4-0.3,0.6-0.6,0.6s-0.6-0.3-0.6-0.6  c0-0.4,0.3-0.6,0.6-0.6S40.6,78.3,40.6,78.6z M38.7,76.9c-0.4,0-0.6-0.3-0.6-0.6c0-0.4,0.3-0.6,0.6-0.6c0.4,0,0.6,0.3,0.6,0.6  C39.3,76.6,39,76.9,38.7,76.9z M39.3,81c0,0.4-0.3,0.6-0.6,0.6c-0.4,0-0.6-0.3-0.6-0.6c0-0.4,0.3-0.6,0.6-0.6  C39,80.4,39.3,80.7,39.3,81z M38.7,72.2c-0.4,0-0.6-0.3-0.6-0.6c0-0.4,0.3-0.6,0.6-0.6c0.4,0,0.6,0.3,0.6,0.6  C39.3,71.9,39,72.2,38.7,72.2z M37.3,74.5c-0.4,0-0.6-0.3-0.6-0.6c0-0.4,0.3-0.7,0.6-0.7c0.4,0,0.6,0.3,0.6,0.7  C38,74.3,37.7,74.5,37.3,74.5z M38,78.6c0,0.4-0.3,0.6-0.6,0.6c-0.4,0-0.6-0.3-0.6-0.6c0-0.4,0.3-0.6,0.6-0.6  C37.7,78,38,78.3,38,78.6z M45.5,67.2v-2.8c0-0.3-0.3-0.6-0.6-0.6h-0.4V44.2h12.9v23h-1.9H45.5z M30.5,43v-3.2h26.9V43H30.5z   M28.9,32.6h1c0.3,0,0.6-0.3,0.6-0.6c0-6.8,5.3-11.2,13.5-11.2S57.4,25.2,57.4,32c0,0.3,0.3,0.6,0.6,0.6h1v0.6h-1H29.9h-1V32.6z   M26,38.6l3.3-3.3v3.3H26z M43.4,44.2v19.6H43c-0.3,0-0.6,0.3-0.6,0.6v2.8h-10h-1.9v-23H43.4z M54,86.7h-0.8H34.7h-0.8  c-1.9,0-3.4-1.5-3.4-3.4V68.4h1.9v12.7c0,2.1,1.7,3.8,3.7,3.8h15.7c2.1,0,3.7-1.7,3.7-3.8V68.4h1.9v14.9  C57.4,85.2,55.9,86.7,54,86.7z M71.7,68.3c-3.2,3.4-7.9,3.4-9.5,3.4h-3.7v-3.2h2.9c3.3,0,5.9-1,7.7-2.9c2-2.2,2.8-5.4,2.5-9.8  C70.7,44,65.9,43,61.5,43h-2.9v-3.2h3.7c4.4,0,11.1,0,12.5,16.3C75.2,61.6,74.2,65.7,71.7,68.3z"/>
<circle cx="60.3" cy="41.3" r="0.7"/>
</svg>
