<svg xmlns="http://www.w3.org/2000/svg" xmlns:xlink="http://www.w3.org/1999/xlink" version="1.1" id="Layer_1" x="0px" y="0px" viewBox="5.0 -10.0 100.0 135.0" enable-background="new 0 0 100 100" xml:space="preserve" height="100px" width="100px">
<path d="M64.4,61.5c0.4,0,0.7-0.3,0.7-0.7v-0.1c0-0.4-0.3-0.7-0.7-0.7s-0.7,0.3-0.7,0.7v0.1C63.7,61.2,64,61.5,64.4,61.5z"/>
<path d="M64.4,64.7c0.4,0,0.7-0.3,0.7-0.7v-0.1c0-0.4-0.3-0.7-0.7-0.7s-0.7,0.3-0.7,0.7V64C63.7,64.4,64,64.7,64.4,64.7z"/>
<path d="M63.7,48.2v0.1c0,0.4,0.3,0.7,0.7,0.7s0.7-0.3,0.7-0.7v-0.1c0-0.4-0.3-0.7-0.7-0.7S63.7,47.8,63.7,48.2z"/>
<path d="M64.4,58.4c0.4,0,0.7-0.3,0.7-0.7v-0.1c0-0.4-0.3-0.7-0.7-0.7s-0.7,0.3-0.7,0.7v0.1C63.7,58.1,64,58.4,64.4,58.4z"/>
<path d="M64.4,21c-0.4,0-0.7,0.3-0.7,0.7s0.3,0.6,0.7,0.6S65,22,65,21.7v0C65,21.3,64.7,21,64.4,21z"/>
<path d="M64.4,24.1c-0.4,0-0.7,0.3-0.7,0.7s0.3,0.6,0.7,0.6s0.7-0.3,0.7-0.6v0C65,24.3,64.7,24.1,64.4,24.1z"/>
<path d="M64.4,27.1c-0.4,0-0.7,0.3-0.7,0.7s0.3,0.6,0.7,0.6s0.7-0.3,0.7-0.6v0C65,27.4,64.7,27.1,64.4,27.1z"/>
<path d="M64.4,30.2c-0.4,0-0.7,0.3-0.7,0.7s0.3,0.6,0.7,0.6s0.7-0.3,0.7-0.6v0C65,30.5,64.7,30.2,64.4,30.2z"/>
<path d="M64.4,17.9c-0.4,0-0.7,0.3-0.7,0.7s0.3,0.6,0.7,0.6S65,19,65,18.6v0C65,18.2,64.7,17.9,64.4,17.9z"/>
<circle cx="63" cy="33" r="0.6"/>
<circle cx="60.2" cy="33" r="0.6"/>
<circle cx="57.5" cy="33" r="0.6"/>
<circle cx="65.7" cy="33" r="0.6"/>
<circle cx="68.5" cy="33" r="0.6"/>
<circle cx="71.2" cy="33" r="0.6"/>
<circle cx="63" cy="37.6" r="0.6"/>
<circle cx="60.2" cy="37.6" r="0.6"/>
<circle cx="57.5" cy="37.6" r="0.6"/>
<circle cx="65.7" cy="37.6" r="0.6"/>
<circle cx="68.5" cy="37.6" r="0.6"/>
<circle cx="71.2" cy="37.6" r="0.6"/>
<circle cx="61.6" cy="35.3" r="0.6"/>
<circle cx="58.9" cy="35.3" r="0.6"/>
<circle cx="64.4" cy="35.3" r="0.6"/>
<circle cx="67.1" cy="35.3" r="0.6"/>
<circle cx="69.9" cy="35.3" r="0.6"/>
<circle cx="31.2" cy="86.9" r="0.6"/>
<circle cx="18.3" cy="86.9" r="0.6"/>
<path d="M91.3,83.7l-3.6-0.5c0-0.9-0.7-1.6-1.6-1.6H80v-0.3c0-0.1,0-0.2,0-0.3h0.9c1.4,0,2.6-1.2,2.6-2.6v-2.5h6.2v-22  c0-2-1.6-3.6-3.6-3.6h-4h-1.3H46.8v0.2l-3.6,1.8c-0.2,0.1-0.3,0.3-0.3,0.6c0,0.2,0.1,0.4,0.4,0.5c0.7,0.3,2.1,1.2,2.1,2  c0,0,0,0.1,0,0.1c0,0.1,0,0.1,0,0.2v22.7c0,1.4,1.2,2.6,2.6,2.6h0.9c0,0.1,0,0.2,0,0.3v0.3h-8.6l-0.5-31.7l39.6-5.7v-4.1h-3.7  l-0.3-7.4l0,0l6.1-15.4h3.9c1.3,0,2.4,1.1,2.4,2.4v9.9c0,0.3,0.3,0.6,0.6,0.6s0.6-0.3,0.6-0.6v-9.9c0-2-1.6-3.6-3.6-3.6h-3.8l0-2.4  h-0.1l-0.2-1.4c-0.1-0.8-0.9-1.5-1.8-1.5h-5l-0.5-3h0H48H42l-0.4-2.5H16.2L15.4,10h-3.2l3,25.2c0.1,0.9,0.9,1.5,1.7,1.5h1.7L18,81.6  h-4c-0.9,0-1.6,0.7-1.6,1.6l-3.6,0.5v6.4l3.6,0.5v4.1h4.2v-2.5h67v2.5h4.2v-4.1l3.6-0.5V83.7z M86,51.5c1.3,0,2.4,1.1,2.4,2.4v20.8  h-5V55.7c0-1-0.6-1.9-1.4-2.3v-1.9H86z M44.7,52.8l2-1v1.6c-0.3,0.1-0.5,0.3-0.8,0.6C45.6,53.5,45.2,53.1,44.7,52.8z M46.5,78.4  V55.7c0-0.8,0.6-1.4,1.4-1.4h15.8c0,0.1,0,0.1,0,0.2v0.1c0,0.4,0.3,0.7,0.7,0.7s0.7-0.3,0.7-0.7v-0.1c0-0.1,0-0.1,0-0.2h15.8  c0.8,0,1.4,0.6,1.4,1.4v22.7c0,0.8-0.6,1.4-1.4,1.4h-2.4h-28h-2.4C47.1,79.8,46.5,79.1,46.5,78.4z M50,81.3c0-0.2,0.2-0.3,0.4-0.3  h28c0.2,0,0.4,0.1,0.4,0.3v0.3H50V81.3z M75.1,29.8l-0.1-2.6c0-0.3-0.3-0.6-0.6-0.6c-0.3,0-0.6,0.3-0.6,0.6l0.6,12.9h-20L55,27.2  c0-0.3-0.2-0.6-0.6-0.6c-0.3,0-0.6,0.2-0.6,0.6l-0.1,2.6l-5-12.5h31.2H80L75.1,29.8z M80.3,16.1h-0.4H48.4v-1.2h31.9V16.1z M80,12.5  l0.2,1.2H48.5l0.2-1.2c0-0.3,0.3-0.5,0.6-0.5h30.1C79.7,12.1,79.9,12.3,80,12.5z M72.9,9.1l0.3,1.8H49.3c-0.2,0-0.3,0-0.5,0.1  l0.2-1.9H72.9z M47.9,9.1l-0.6,4.7h-0.1v3l6.3,16l0,0l-0.3,7.4H39.5l-0.1-3.4h1.3c0.9,0,1.6-0.7,1.7-1.5l3-25.2h-3.2l-0.1-0.9H47.9z   M27.1,11.2h3.6l1.2,24.3h-6L27.1,11.2z M31.9,11.2h10.6h1.6L41.3,35c0,0.2-0.3,0.5-0.5,0.5h-1.4h-6.4L31.9,11.2z M16.9,35.5  c-0.2,0-0.5-0.2-0.5-0.5l-2.8-23.8h1.6h10.6l-1.2,24.3h-6H16.9z M24.6,36.7h8.5h5.1l0.1,3.4h0l0.2,10h0l0.4,29.7H19.2l0.6-43.1H24.6  z M19.2,81h19.8l0,0.6H19.2L19.2,81z M13.9,82.8h4h22.2h45.9c0.2,0,0.4,0.2,0.4,0.4v7.3c0,0.2-0.2,0.4-0.4,0.4H13.9  c-0.2,0-0.4-0.2-0.4-0.4v-0.7v-6.7C13.5,83,13.7,82.8,13.9,82.8z M15.3,93.4h-1.8v-1.4c0.1,0,0.3,0.1,0.4,0.1h1.4V93.4z M84.7,93.4  v-1.3h1.4c0.1,0,0.3,0,0.4-0.1v1.4H84.7z"/>
<rect x="48.1" y="66" width="32.5" height="12.2"/>
<path d="M21,88.8h0.6h5.1c0.6,0,1.1-0.5,1.1-1.1V86c0-0.6-0.5-1.1-1.1-1.1h-5.1H21c-0.6,0-1.1,0.5-1.1,1.1v1.7  C19.9,88.3,20.4,88.8,21,88.8z M26.6,87.6h-3.9v-1.5h3.9V87.6z"/>
<path d="M33.7,88.8h0.6h5.1c0.6,0,1.1-0.5,1.1-1.1V86c0-0.6-0.5-1.1-1.1-1.1h-5.1h-0.6c-0.6,0-1.1,0.5-1.1,1.1v1.7  C32.6,88.3,33.1,88.8,33.7,88.8z M39.3,87.6h-3.9v-1.5h3.9V87.6z"/>
</svg>
