<svg xmlns="http://www.w3.org/2000/svg" xmlns:xlink="http://www.w3.org/1999/xlink" version="1.1" x="0px" y="0px" viewBox="0 0 100 125" enable-background="new 0 0 100 100" xml:space="preserve" height="100px" width="100px">><path d="M56,41.5c0.4-0.1,0.8-0.2,1.2-0.3c4.7-1.3,13.4-3.6,13.4-9.8c0-1.5-0.5-2.6-1.5-3.4c-1.7-1.4-4.5-1.4-6-1.3l0.6-1.3  c0.1-0.2,0.1-0.4,0-0.6c-0.1-0.2-0.3-0.3-0.5-0.3H30.9c-0.2,0-0.4,0.1-0.5,0.3c-0.1,0.2-0.1,0.4,0,0.6l2.5,5.7l1.1,2.6  c0.4,0.9,0.8,1.7,1.4,2.5c0.8,1.1,1.4,2.3,1.9,3.5l0.6,1.5l1.8,3.2c0.1,0.1,0.1,0.3,0.1,0.4c-0.5,1.3-4.1,2.7-9.8,2.7  c-0.3,0-0.6,0.3-0.6,0.6s0.3,0.6,0.6,0.6h4.5c-0.1,0.3-0.1,0.6-0.1,0.9l0.6,4.3c0.1,1,0.2,2,0.2,3.1l0,6.7c0,1-0.1,2.1-0.2,3.1  l-0.3,2.2c-0.1,1.2-0.2,2.4-0.2,3.6V74c0,0.8,0.6,1.4,1.4,1.4h22.2c0.8,0,1.4-0.6,1.4-1.4v-1.2c0-1.2-0.1-2.4-0.2-3.6l-0.1-0.7  c1.3-0.6,2.5-1.5,3.4-2.7l3.4-4.6c0.9-1.2,1.2-2.7,0.8-4.1c-0.6-2.3-3-3.8-5.4-3.4l-2.3,0.3l0.6-4.2c0-0.3,0-0.6-0.1-0.9h4.4  c0.3,0,0.6-0.3,0.6-0.6s-0.3-0.6-0.6-0.6c-5.6,0-9.2-1.4-9.8-2.7c0-0.1,0-0.2,0.1-0.4L56,41.5z M68.4,28.9c0.7,0.6,1.1,1.4,1.1,2.5  c0,5.2-8.2,7.4-12.6,8.6c-0.1,0-0.2,0-0.3,0.1l0.1-0.4c0.5-1.2,1.1-2.4,1.9-3.5c0.6-0.8,1-1.6,1.4-2.5l2.5-5.8  C63.6,27.8,66.7,27.5,68.4,28.9z M37.3,48.9h19.5v1.2c0,0.3-0.2,0.5-0.5,0.5H37.8c-0.3,0-0.5-0.2-0.5-0.5V48.9z M58.4,74  c0,0.1-0.1,0.2-0.2,0.2H35.9c-0.1,0-0.2-0.1-0.2-0.2v-1.2c0-1.2,0.1-2.3,0.2-3.5l0.3-2.2c0.1-1.1,0.2-2.2,0.2-3.3l0-6.7  c0-1.1-0.1-2.2-0.2-3.2l-0.6-4.3c0-0.2,0-0.4,0.1-0.5c0.1-0.1,0.2-0.2,0.4-0.2v1.2c0,1,0.8,1.7,1.7,1.7h18.4c1,0,1.7-0.8,1.7-1.7  v-1.2c0.2,0,0.3,0.1,0.5,0.2c0.1,0.1,0.2,0.3,0.1,0.5L58,53.9c-0.1,1.1-0.2,2.1-0.2,3.2l0,6.7c0,1.1,0.1,2.2,0.2,3.3l0.3,2.2  c0.1,1.1,0.2,2.3,0.2,3.5V74z M61.7,54.8c1.9-0.3,3.7,0.8,4.1,2.5c0.3,1.1,0,2.2-0.6,3.1l-3.4,4.6c-0.7,0.9-1.6,1.6-2.6,2.1l0-0.3  c-0.1-1-0.2-2.1-0.2-3.1l0-6.7c0-0.6,0-1.3,0.1-1.9L61.7,54.8z M53.2,45.4c0.4,0.9,1.4,1.7,3,2.3H37.8c1.5-0.6,2.6-1.4,3-2.3  c0.2-0.4,0.1-1-0.1-1.4l-1.8-3.2l-0.6-1.5c-0.5-1.3-1.2-2.6-2-3.8c-0.5-0.7-0.9-1.5-1.3-2.3l-3.3-7.5h30.4l-2.1,4.8L59,33.3  c-0.3,0.8-0.8,1.6-1.3,2.3c-0.8,1.2-1.5,2.4-2,3.8l-0.5,1.4l0,0c0,0,0,0,0,0L53.3,44C53.1,44.4,53,44.9,53.2,45.4z"/><path d="M56,66.4c0-0.3-0.1-0.6-0.1-0.9H38.2c0,0.3,0,0.6-0.1,0.9l-0.2,1.7c-0.1,0.9-0.2,1.8-0.2,2.7v0.9c0,0.3,0.3,0.6,0.6,0.6  h17.3c0.4,0,0.6-0.3,0.6-0.6v-0.9c0-0.9-0.1-1.8-0.2-2.7L56,66.4z"/><circle cx="48.3" cy="40.4" r="0.6"/><circle cx="45.6" cy="40.4" r="0.6"/><circle cx="45.6" cy="45" r="0.6"/><circle cx="43" cy="40.4" r="0.6"/><circle cx="50.9" cy="40.4" r="0.6"/><circle cx="49.6" cy="37.8" r="0.6"/><circle cx="47" cy="37.8" r="0.6"/><circle cx="44.3" cy="37.8" r="0.6"/><circle cx="41.7" cy="37.8" r="0.6"/><circle cx="52.3" cy="37.8" r="0.6"/><circle cx="48.3" cy="45" r="0.6"/><circle cx="49.6" cy="42.7" r="0.6"/><circle cx="47" cy="42.7" r="0.6"/><circle cx="44.3" cy="42.7" r="0.6"/><path d="M47,63.4c0.4,0,0.6-0.3,0.6-0.7v0c0-0.4-0.3-0.6-0.6-0.6s-0.6,0.3-0.6,0.7S46.6,63.4,47,63.4z"/><path d="M47,57.3c0.4,0,0.6-0.3,0.6-0.7v0c0-0.4-0.3-0.6-0.6-0.6s-0.6,0.3-0.6,0.7S46.6,57.3,47,57.3z"/><path d="M47,60.4c0.4,0,0.6-0.3,0.6-0.7v0c0-0.4-0.3-0.6-0.6-0.6s-0.6,0.3-0.6,0.7S46.6,60.4,47,60.4z"/><path d="M47,54.3c0.4,0,0.6-0.3,0.6-0.7v0c0-0.4-0.3-0.6-0.6-0.6s-0.6,0.3-0.6,0.7S46.6,54.3,47,54.3z"/></svg>
