<?xml version="1.0" encoding="UTF-8" standalone="no"?>
<svg
   version="1.1"
   x="0px"
   y="0px"
   viewBox="5.0 -10.0 100.0 135.0"
   enable-background="new 0 0 100 100"
   xml:space="preserve"
   height="100px"
   width="100px"
   id="svg6039"
   sodipodi:docname="WilfaSvart.svg"
   inkscape:version="1.2.2 (b0a84865, 2022-12-01)"
   xmlns:inkscape="http://www.inkscape.org/namespaces/inkscape"
   xmlns:sodipodi="http://sodipodi.sourceforge.net/DTD/sodipodi-0.dtd"
   xmlns="http://www.w3.org/2000/svg"
   xmlns:svg="http://www.w3.org/2000/svg"><defs
   id="defs6043" /><sodipodi:namedview
   id="namedview6041"
   pagecolor="#ffffff"
   bordercolor="#000000"
   borderopacity="0.25"
   inkscape:showpageshadow="2"
   inkscape:pageopacity="0.0"
   inkscape:pagecheckerboard="0"
   inkscape:deskcolor="#d1d1d1"
   showgrid="false"
   inkscape:zoom="6.675088"
   inkscape:cx="45.167944"
   inkscape:cy="56.703372"
   inkscape:window-width="3840"
   inkscape:window-height="1147"
   inkscape:window-x="0"
   inkscape:window-y="25"
   inkscape:window-maximized="1"
   inkscape:current-layer="layer3" /> enable-background=&quot;new 0 0 100 100&quot; xml:space=&quot;preserve&quot;&gt;<g
   inkscape:groupmode="layer"
   id="layer2"
   inkscape:label="Layer 1"><path
     style="fill:none;stroke:#000000;stroke-width:1.11375;stroke-dasharray:none;stroke-opacity:1"
     d="M 71.864013,84.14373 38.875256,84.5485 c 0,0 -10.572223,-0.13647 -10.8276,-0.50596 -0.255378,-0.36949 -0.46413,-5.77991 0.577518,-8.4879 l -0.982289,-21.161508 0.607156,-0.27288 -0.10119,-35.54927 c -1.219229,-5.53296 5.593144,-5.87585 7.738684,-6.72062 0,0 0.04729,-0.41642 -0.0358,-3.6766 -0.08307,-3.26018 29.896064,-3.52542 29.797598,-0.0665 -0.09847,3.45895 0.04191,3.68379 0.04191,3.68379 4.547491,0.58602 8.052848,1.85118 7.589439,6.7799 l 0.434408,53.14449 c 0.12549,6.877858 0.174865,6.480788 0.190107,11.416328 -0.09497,0.72637 -0.610676,1.04875 -2.041212,1.01193 z"
     id="path1849"
     sodipodi:nodetypes="cczccccczzccccc" /><path
     style="fill:none;stroke:#000000;stroke-width:1.11375;stroke-dasharray:none;stroke-opacity:1"
     d="m 27.61695,55.548072 10.947748,0.35777 -0.07155,20.392868 c 0.515238,1.52173 -5.271138,0.64398 -7.942482,0.57243 -0.572433,-0.0477 -1.741144,-0.19081 -1.931956,-1.28797"
     id="path2741"
     sodipodi:nodetypes="ccccc" /><circle
     style="fill:none;stroke:#000000;stroke-width:1.11375;stroke-dasharray:none;stroke-opacity:1"
     id="path2795"
     cx="59.494221"
     cy="64.885872"
     r="3.0410414" /><path
     style="fill:none;stroke:#000000;stroke-width:1.11375;stroke-dasharray:none;stroke-opacity:1"
     d="m 56.912819,63.652252 1.66968,0.80953"
     id="path2797" /><circle
     style="fill:none;stroke:#000000;stroke-width:1.11375;stroke-dasharray:none;stroke-opacity:1"
     id="path2799"
     cx="59.493229"
     cy="57.04945"
     r="1.2649063" /><path
     style="fill:none;stroke:#000000;stroke-width:1.11375;stroke-dasharray:none;stroke-opacity:1"
     d="m 35.43471,11.993472 3.767624,-0.49369 c 0.782021,-0.008 0.513909,1.27232 0.570326,2.11891 0,0 -0.07828,17.25228 -0.07155,17.39897 0.0067,0.14669 10.411505,0.1974 10.406521,0 -0.005,-0.1974 0,-18.31584 0,-18.31584 -0.09046,-0.71325 0.150384,-1.16147 1.011922,-1.11312 l 14.571722,0.20238"
     id="path2801"
     sodipodi:nodetypes="ccczzccc" /><path
     style="fill:none;stroke:#000000;stroke-width:1.11375;stroke-dasharray:none;stroke-opacity:1"
     d="m 44.718335,31.040862 v 4.40057"
     id="path2803" /><circle
     style="fill:none;stroke:#000000;stroke-width:1.11375;stroke-dasharray:none;stroke-opacity:1"
     id="path2805"
     cx="41.927731"
     cy="27.606266"
     r="0.35776955" /><circle
     style="fill:none;stroke:#000000;stroke-width:1.11375;stroke-dasharray:none;stroke-opacity:1"
     id="path2805-5"
     cx="44.467899"
     cy="27.534702"
     r="0.35776955" /><circle
     style="fill:none;stroke:#000000;stroke-width:1.11375;stroke-dasharray:none;stroke-opacity:1"
     id="path2805-5-4"
     cx="47.088299"
     cy="27.534702"
     r="0.35776955" /><path
     style="fill:none;stroke:#000000;stroke-width:1.11375;stroke-dasharray:none;stroke-opacity:1"
     d="m 35.917206,11.685532 c 5.181244,-2.51869 27.006022,-2.06002 29.515985,-0.10733"
     id="path2851"
     sodipodi:nodetypes="cc" /><path
     style="fill:none;stroke:#000000;stroke-width:1.11375;stroke-dasharray:none;stroke-opacity:1"
     d="m 73.215292,17.666392 c -0.590012,-1.18378 -21.985213,-3.71287 -21.958776,-3.03578 0.02644,0.6771 0.204515,63.117358 -0.03576,63.137988 -0.240292,0.0206 -11.738328,0 -11.738328,0 -0.6204,0.003 -0.951362,-0.24695 -0.809541,-0.91073 0,0 0.244478,-60.902518 0,-61.322658 -0.244478,-0.42014 -10.586972,2.19034 -10.52402,2.631"
     id="path2853"
     sodipodi:nodetypes="czzcczc" /><path
     style="fill:none;stroke:#000000;stroke-width:1.11375;stroke-dasharray:none;stroke-opacity:1"
     d="m 51.006076,77.78956 c 6.932592,-0.20148 14.686966,-0.0192 21.009725,-0.8305 1.574894,-0.005 1.74187,-0.71442 1.720273,-1.51789"
     id="path2855"
     sodipodi:nodetypes="ccc" /></g><g
   inkscape:groupmode="layer"
   id="layer3"
   inkscape:label="Layer 2"
   style="display:none"><path
     d="m 72.8,15.9 c 0,-0.3 -0.3,-0.6 -0.6,-0.6 H 30.1 c -0.1,0 -0.2,0 -0.3,0.1 v 0 l -2.3,1.2 c -0.2,0.1 -0.3,0.2 -0.3,0.4 0,0.2 0,0.3 0.1,0.5 l 9.5,14 c -0.2,0.6 -0.2,1.2 0,1.8 l 1.9,4.8 c -0.6,-0.3 -1.2,-0.5 -1.9,-0.5 -2.1,0 -3.9,1.7 -4,3.8 0,0 0,0.1 0,0.1 0,0.1 -0.2,6.1 -3.2,11.9 -0.2,0.3 0,0.7 0.3,0.8 0.1,0 0.2,0.1 0.3,0.1 0.2,0 0.4,-0.1 0.5,-0.3 1.4,-2.7 2.2,-5.3 2.7,-7.5 0.3,1.5 0.7,3.2 1.2,4.7 0.1,0.3 0.5,0.5 0.8,0.4 0.3,-0.1 0.5,-0.5 0.4,-0.8 -0.8,-2 -1.2,-4.4 -1.4,-6.2 0.7,0.6 1.6,0.9 2.5,0.9 0.8,0 1.5,-0.2 2.2,-0.6 L 37,49.7 c -0.4,0.9 -0.2,2 0.3,2.8 0.1,0.1 0.2,0.3 0.3,0.4 l -5.5,9.5 c -2,3.3 -2.3,6.1 -2.3,7.5 0,3.5 1.5,14.8 21.3,14.8 19.8,0 21.3,-11.4 21.3,-14.8 0,-1.4 -0.3,-4.2 -2.3,-7.5 l -5.7,-9.9 c 0.6,-0.8 0.7,-1.9 0.3,-2.8 l -1.9,-5 C 62.5,43.9 62.3,43 62.3,42.1 h 0.3 c 0.3,0 0.6,-0.3 0.6,-0.6 0,-0.3 -0.3,-0.6 -0.6,-0.6 h -0.3 c 0.1,-0.7 0.2,-1.4 0.5,-2.1 l 2.1,-5.5 c 0.3,-0.8 0.2,-1.7 -0.3,-2.4 -0.2,-0.2 -0.4,-0.4 -0.6,-0.6 l 8.6,-13.9 c 0.2,-0.2 0.2,-0.3 0.2,-0.5 z M 29.9,16.7 38.1,30 c -0.2,0.1 -0.4,0.2 -0.6,0.4 l -8.9,-13 z m 6.9,27.6 c -1.5,0 -2.8,-1.2 -2.8,-2.8 0,-1.6 1.2,-2.8 2.8,-2.8 1.3,0 2.4,0.9 2.7,2.2 h -2.8 c -0.3,0 -0.6,0.3 -0.6,0.6 0,0.3 0.3,0.6 0.6,0.6 h 2.8 c -0.3,1.3 -1.4,2.2 -2.7,2.2 z m 34.5,25.5 c 0,8.5 -7.5,13.7 -20.1,13.7 -12.6,0 -20.1,-5.1 -20.1,-13.7 0,-2.1 0.8,-4.6 2.1,-6.9 l 5.5,-9.4 c 0.4,0.1 0.7,0.2 1.1,0.2 h 22.1 c 0.6,0 1.1,-0.2 1.6,-0.5 l 5.6,9.6 c 1.9,3.2 2.2,5.8 2.2,7 z m -9.6,-24.7 1.9,5 c 0.2,0.6 0.1,1.2 -0.2,1.7 -0.3,0.5 -0.9,0.8 -1.5,0.8 H 39.8 c -0.6,0 -1.1,-0.3 -1.5,-0.8 -0.4,-0.5 -0.4,-1.1 -0.2,-1.7 l 1.9,-5 c 0.4,-1 0.6,-2 0.6,-3 h 20.3 c 0.2,1 0.4,2.1 0.8,3 z m 2.1,-12.2 -2.1,5.5 c -0.3,0.8 -0.5,1.7 -0.6,2.6 H 40.7 C 40.6,40.1 40.4,39.3 40.1,38.4 L 38,32.9 C 37.8,32.5 37.9,32 38.2,31.6 38.5,31.2 38.9,31 39.4,31 h 23.2 c 0.5,0 0.9,0.2 1.2,0.6 0.1,0.3 0.2,0.8 0,1.3 z M 63,29.8 c -0.2,0 -0.3,-0.1 -0.5,-0.1 H 39.3 L 31.1,16.5 h 40 z"
     id="path5971" /><path
     d="M 51.2,82 C 62.7,82 68.7,77.4 69.4,71.1 H 33 C 33.7,77.4 39.7,82 51.2,82 Z"
     id="path5973" /><circle
     cx="54.799999"
     cy="27.700001"
     r="0.60000002"
     id="circle5975" /><circle
     cx="52.200001"
     cy="27.700001"
     r="0.60000002"
     id="circle5977" /><circle
     cx="49.5"
     cy="27.700001"
     r="0.60000002"
     id="circle5979" /><circle
     cx="46.900002"
     cy="27.700001"
     r="0.60000002"
     id="circle5981" /><circle
     cx="44.200001"
     cy="27.700001"
     r="0.60000002"
     id="circle5983" /><circle
     cx="41.599998"
     cy="27.700001"
     r="0.60000002"
     id="circle5985" /><circle
     cx="57.5"
     cy="27.700001"
     r="0.60000002"
     id="circle5987" /><circle
     cx="60.200001"
     cy="27.700001"
     r="0.60000002"
     id="circle5989" /><circle
     cx="53.5"
     cy="25.1"
     r="0.60000002"
     id="circle5991" /><circle
     cx="50.900002"
     cy="25.1"
     r="0.60000002"
     id="circle5993" /><circle
     cx="48.200001"
     cy="25.1"
     r="0.60000002"
     id="circle5995" /><circle
     cx="45.599998"
     cy="25.1"
     r="0.60000002"
     id="circle5997" /><circle
     cx="42.900002"
     cy="25.1"
     r="0.60000002"
     id="circle5999" /><circle
     cx="40.299999"
     cy="25.1"
     r="0.60000002"
     id="circle6001" /><circle
     cx="56.200001"
     cy="25.1"
     r="0.60000002"
     id="circle6003" /><circle
     cx="58.799999"
     cy="25.1"
     r="0.60000002"
     id="circle6005" /><circle
     cx="61.5"
     cy="25.1"
     r="0.60000002"
     id="circle6007" /><circle
     cx="54.799999"
     cy="22.5"
     r="0.60000002"
     id="circle6009" /><circle
     cx="52.200001"
     cy="22.5"
     r="0.60000002"
     id="circle6011" /><circle
     cx="49.5"
     cy="22.5"
     r="0.60000002"
     id="circle6013" /><circle
     cx="46.900002"
     cy="22.5"
     r="0.60000002"
     id="circle6015" /><circle
     cx="44.200001"
     cy="22.5"
     r="0.60000002"
     id="circle6017" /><circle
     cx="41.599998"
     cy="22.5"
     r="0.60000002"
     id="circle6019" /><circle
     cx="38.900002"
     cy="22.5"
     r="0.60000002"
     id="circle6021" /><circle
     cx="57.5"
     cy="22.5"
     r="0.60000002"
     id="circle6023" /><circle
     cx="60.200001"
     cy="22.5"
     r="0.60000002"
     id="circle6025" /><circle
     cx="62.799999"
     cy="22.5"
     r="0.60000002"
     id="circle6027" /><path
     d="m 51.2,56.5 c 0.4,0 0.7,-0.3 0.7,-0.7 v 0 c 0,-0.4 -0.3,-0.6 -0.7,-0.6 -0.4,0 -0.7,0.3 -0.7,0.7 0,0.4 0.3,0.6 0.7,0.6 z"
     id="path6029" /><path
     d="m 51.2,62.6 c 0.4,0 0.7,-0.3 0.7,-0.7 v 0 c 0,-0.4 -0.3,-0.6 -0.7,-0.6 -0.4,0 -0.7,0.3 -0.7,0.7 0,0.4 0.3,0.6 0.7,0.6 z"
     id="path6031" /><path
     d="m 51.2,59.5 c 0.4,0 0.7,-0.3 0.7,-0.7 v 0 c 0,-0.4 -0.3,-0.6 -0.7,-0.6 -0.4,0 -0.7,0.3 -0.7,0.7 0,0.4 0.3,0.6 0.7,0.6 z"
     id="path6033" /><path
     d="m 51.2,68.7 c 0.4,0 0.7,-0.3 0.7,-0.7 v 0 c 0,-0.4 -0.3,-0.6 -0.7,-0.6 -0.4,0 -0.7,0.3 -0.7,0.7 0,0.4 0.3,0.6 0.7,0.6 z"
     id="path6035" /><path
     d="m 51.2,65.7 c 0.4,0 0.7,-0.3 0.7,-0.7 v 0 c 0,-0.4 -0.3,-0.6 -0.7,-0.6 -0.4,0 -0.7,0.3 -0.7,0.7 0,0.4 0.3,0.6 0.7,0.6 z"
     id="path6037" /></g></svg>
